<svg width="1067" height="512" viewBox="0 0 1067 512" fill="none" xmlns="http://www.w3.org/2000/svg">
<path fill-rule="evenodd" clip-rule="evenodd" d="M128 5.33331C95.5994 5.33331 69.3334 31.5993 69.3334 64V448C69.3334 480.401 95.5994 506.667 128 506.667H384C416.401 506.667 442.667 480.401 442.667 448V64C442.667 31.5993 416.401 5.33331 384 5.33331H128Z" fill="#E5E6E8"/>
<path fill-rule="evenodd" clip-rule="evenodd" d="M256 5.33331V506.667H128C95.5994 506.667 69.3334 480.401 69.3334 448V64C69.3334 31.5993 95.5994 5.33331 128 5.33331H256Z" fill="#D4D6D9"/>
<path fill-rule="evenodd" clip-rule="evenodd" d="M224 48C215.164 48 208 55.1635 208 64V80H192C187.757 80 183.687 81.6858 180.686 84.6863C177.686 87.6868 176 91.7566 176 96V160C176 168.836 183.164 176 192 176H208V192C208 200.836 215.164 208 224 208H288C296.836 208 304 200.836 304 192V176H320C328.836 176 336 168.836 336 160V96C336 87.1635 328.836 80 320 80H304V64C304 55.1635 296.836 48 288 48H224Z" fill="#F44336"/>
<path fill-rule="evenodd" clip-rule="evenodd" d="M256 48V208H224C215.164 208 208 200.836 208 192V176H192C183.164 176 176 168.836 176 160V96C176 91.7566 177.686 87.6868 180.686 84.6863C183.687 81.6858 187.757 80 192 80H208V64C208 55.1635 215.164 48 224 48H256Z" fill="#CC382D"/>
<path fill-rule="evenodd" clip-rule="evenodd" d="M170.667 240C161.83 240 154.667 247.164 154.667 256C154.667 264.836 161.83 272 170.667 272H341.333C350.17 272 357.333 264.836 357.333 256C357.333 247.164 350.17 240 341.333 240H170.667ZM170.667 293.333C161.83 293.333 154.667 300.497 154.667 309.333C154.667 318.17 161.83 325.333 170.667 325.333H341.333C350.17 325.333 357.333 318.17 357.333 309.333C357.333 300.497 350.17 293.333 341.333 293.333H170.667ZM154.667 373.333C154.667 364.497 161.83 357.333 170.667 357.333H341.333C350.17 357.333 357.333 364.497 357.333 373.333C357.333 382.17 350.17 389.333 341.333 389.333H170.667C161.83 389.333 154.667 382.17 154.667 373.333ZM170.667 421.333C161.83 421.333 154.667 428.497 154.667 437.333C154.667 446.17 161.83 453.333 170.667 453.333H256C264.836 453.333 272 446.17 272 437.333C272 428.497 264.836 421.333 256 421.333H170.667Z" fill="#BCBCBC"/>
<path fill-rule="evenodd" clip-rule="evenodd" d="M256 421.333H170.667C161.83 421.333 154.667 428.497 154.667 437.333C154.667 446.17 161.83 453.333 170.667 453.333H256V421.333ZM256 357.333V389.333H170.667C161.83 389.333 154.667 382.17 154.667 373.333C154.667 364.497 161.83 357.333 170.667 357.333H256ZM256 293.333V325.333H170.667C161.83 325.333 154.667 318.17 154.667 309.333C154.667 300.497 161.83 293.333 170.667 293.333H256ZM256 240V272H170.667C161.83 272 154.667 264.836 154.667 256C154.667 247.164 161.83 240 170.667 240H256Z" fill="#90A7B2"/>
<g filter="url(#filter0_b)">
<path d="M413.19 185.24C419.927 185.24 426.448 182.087 432.755 175.78C432.468 149.407 432.325 129.125 432.325 114.935C426.305 111.925 420.285 110.42 414.265 110.42C406.095 110.42 399.573 113.573 394.7 119.88C389.97 126.187 387.605 134.428 387.605 144.605C387.605 156.645 390.042 166.463 394.915 174.06C399.932 181.513 406.023 185.24 413.19 185.24ZM364.17 147.83C364.17 131.92 368.542 119.092 377.285 109.345C386.172 99.5983 396.922 94.725 409.535 94.725C417.848 94.725 425.588 96.7317 432.755 100.745C432.755 75.0883 431.895 54.8783 430.175 40.115C434.188 39.5417 438.058 39.255 441.785 39.255C446.515 39.255 450.17 40.2583 452.75 42.265C455.33 44.2717 456.62 47.1383 456.62 50.865C456.62 54.4483 456.262 67.5633 455.545 90.21C454.972 112.713 454.685 132.923 454.685 150.84C454.685 174.633 456.047 190.185 458.77 197.495C455.187 198.928 451.245 199.645 446.945 199.645C438.918 199.645 434.475 196.635 433.615 190.615C425.302 197.638 416.487 201.15 407.17 201.15C395.56 201.15 385.455 196.133 376.855 186.1C368.398 176.067 364.17 163.31 364.17 147.83ZM494.739 96.23C505.059 96.23 510.219 100.028 510.219 107.625C510.219 108.485 510.004 111.423 509.574 116.44C509.144 121.313 508.714 127.405 508.284 134.715C507.997 142.025 507.854 148.977 507.854 155.57C507.854 174.777 509.717 188.752 513.444 197.495C509.86 199.072 505.775 199.86 501.189 199.86C494.882 199.86 490.582 198.57 488.289 195.99C486.139 193.41 485.064 189.038 485.064 182.875C485.064 180.582 485.135 175.063 485.279 166.32C485.422 157.433 485.494 150.625 485.494 145.895C485.494 125.112 484.849 108.843 483.559 97.09C486.999 96.5167 490.725 96.23 494.739 96.23ZM495.814 87.2C491.514 87.2 487.859 85.7667 484.849 82.9C481.839 80.0333 480.334 76.3783 480.334 71.935C480.334 67.635 481.91 64.0517 485.064 61.185C488.217 58.175 491.944 56.67 496.244 56.67C500.4 56.67 503.984 58.175 506.994 61.185C510.004 64.0517 511.509 67.635 511.509 71.935C511.509 76.235 509.932 79.89 506.779 82.9C503.625 85.7667 499.97 87.2 495.814 87.2ZM591.924 125.685C589.057 116.368 581.102 111.71 568.059 111.71C564.332 111.71 561.107 112.785 558.384 114.935C555.661 116.942 554.299 119.737 554.299 123.32C554.299 127.62 556.162 130.988 559.889 133.425C563.759 135.862 568.417 137.653 573.864 138.8C579.311 139.947 584.757 141.308 590.204 142.885C595.651 144.462 600.237 147.4 603.964 151.7C607.834 156 609.769 161.733 609.769 168.9C609.769 179.363 605.612 187.39 597.299 192.98C589.129 198.427 579.454 201.15 568.274 201.15C558.384 201.15 549.641 199.502 542.044 196.205C534.447 192.908 530.649 188.823 530.649 183.95C530.649 177.787 535.092 172.842 543.979 169.115C548.279 179.148 557.596 184.165 571.929 184.165C582.822 184.165 588.269 180.51 588.269 173.2C588.269 168.9 586.334 165.675 582.464 163.525C578.737 161.232 574.151 159.583 568.704 158.58C563.257 157.433 557.811 156 552.364 154.28C546.917 152.56 542.259 149.407 538.389 144.82C534.662 140.233 532.799 134.07 532.799 126.33C532.799 116.01 536.884 108.198 545.054 102.895C553.367 97.4483 563.114 94.725 574.294 94.725C578.594 94.725 583.037 95.2267 587.624 96.23C592.354 97.09 596.869 99.025 601.169 102.035C605.612 104.902 607.834 108.557 607.834 113C607.834 115.867 606.401 118.447 603.534 120.74C600.667 122.89 596.797 124.538 591.924 125.685ZM653.311 106.765C663.488 98.7383 674.955 94.725 687.711 94.725C696.455 94.725 703.55 97.305 708.996 102.465C714.443 107.625 717.166 115.938 717.166 127.405C717.166 128.982 717.023 134.572 716.736 144.175C716.593 153.778 716.521 160.802 716.521 165.245C716.521 176.998 718.385 187.605 722.111 197.065C717.668 198.928 713.655 199.86 710.071 199.86C704.195 199.86 700.038 198.642 697.601 196.205C695.165 193.768 693.946 189.182 693.946 182.445C693.946 174.992 694.09 166.033 694.376 155.57C694.663 144.963 694.806 137.653 694.806 133.64C694.806 125.757 693.23 119.88 690.076 116.01C686.923 112.14 682.838 110.205 677.821 110.205C670.225 110.205 662.341 113.932 654.171 121.385C654.458 140.592 654.601 154.567 654.601 163.31C654.601 177.07 655.031 188.823 655.891 198.57C652.021 199.143 648.438 199.43 645.141 199.43C635.825 199.43 631.166 196.563 631.166 190.83C631.166 186.673 631.31 179.937 631.596 170.62C632.026 161.303 632.241 152.918 632.241 145.465C632.241 121.672 630.88 106.048 628.156 98.595C631.596 97.0183 635.323 96.23 639.336 96.23C643.493 96.23 646.718 96.875 649.011 98.165C651.305 99.455 652.738 102.322 653.311 106.765ZM779.565 156.645C775.695 156.645 770.463 156.502 763.87 156.215C765.303 166.392 768.528 173.845 773.545 178.575C778.705 183.305 785.012 185.67 792.465 185.67C796.335 185.67 800.348 184.667 804.505 182.66C808.662 180.653 811.743 177.787 813.75 174.06C820.773 177.787 824.285 181.8 824.285 186.1C824.285 190.973 820.917 194.7 814.18 197.28C807.443 199.86 799.918 201.15 791.605 201.15C778.132 201.15 766.092 196.707 755.485 187.82C745.022 178.933 739.79 166.105 739.79 149.335C739.79 131.705 744.807 118.232 754.84 108.915C765.017 99.455 776.985 94.725 790.745 94.725C801.782 94.725 810.668 97.735 817.405 103.755C824.285 109.775 827.725 116.942 827.725 125.255C827.725 131.992 826.435 137.582 823.855 142.025C821.418 146.325 817.763 149.478 812.89 151.485C808.017 153.492 803.072 154.853 798.055 155.57C793.038 156.287 786.875 156.645 779.565 156.645ZM788.81 110.42C782.073 110.42 776.34 113 771.61 118.16C766.88 123.32 764.085 131.49 763.225 142.67C772.398 142.67 779.135 142.455 783.435 142.025C797.338 140.305 804.29 134.858 804.29 125.685C804.29 121.528 802.785 117.945 799.775 114.935C796.908 111.925 793.253 110.42 788.81 110.42ZM858.116 252.75C855.249 252.75 852.454 251.675 849.731 249.525C847.151 247.375 845.001 244.652 843.281 241.355C847.294 238.632 852.526 233.543 858.976 226.09C865.426 218.637 871.589 210.037 877.466 200.29C872.162 182.66 865.282 163.453 856.826 142.67C848.512 121.887 841.561 108.7 835.971 103.11C842.994 98.2367 848.656 95.8 852.956 95.8C858.402 95.8 862.272 98.2367 864.566 103.11C867.719 109.703 872.091 119.952 877.681 133.855C883.271 147.615 887.929 160.587 891.656 172.77C896.529 160.73 900.542 148.045 903.696 134.715C906.849 121.385 908.426 110.635 908.426 102.465C908.426 99.885 908.282 97.735 907.996 96.015C911.292 95.155 914.947 94.725 918.961 94.725C926.701 94.725 930.571 97.735 930.571 103.755C930.571 110.348 927.991 121.743 922.831 137.94C917.671 154.137 911.579 169.832 904.556 185.025C891.656 212.975 879.831 233.615 869.081 246.945C865.927 250.815 862.272 252.75 858.116 252.75Z" fill="black"/>
<path d="M432.755 175.78L433.462 176.487L433.76 176.19L433.755 175.769L432.755 175.78ZM432.325 114.935H433.325V114.317L432.772 114.041L432.325 114.935ZM394.7 119.88L393.909 119.269L393.904 119.274L393.9 119.28L394.7 119.88ZM394.915 174.06L394.073 174.6L394.079 174.609L394.085 174.618L394.915 174.06ZM377.285 109.345L376.546 108.671L376.541 108.677L377.285 109.345ZM432.755 100.745L432.266 101.617L433.755 102.451V100.745H432.755ZM430.175 40.115L430.034 39.125L429.069 39.2629L429.182 40.2307L430.175 40.115ZM455.545 90.21L454.545 90.1784L454.545 90.1845L455.545 90.21ZM458.77 197.495L459.141 198.423L460.048 198.061L459.707 197.146L458.77 197.495ZM433.615 190.615L434.605 190.474L434.349 188.685L432.97 189.851L433.615 190.615ZM376.855 186.1L376.09 186.744L376.096 186.751L376.855 186.1ZM413.19 186.24C420.269 186.24 427.031 182.918 433.462 176.487L432.048 175.073C425.866 181.255 419.584 184.24 413.19 184.24V186.24ZM433.755 175.769C433.468 149.397 433.325 129.12 433.325 114.935H431.325C431.325 129.13 431.468 149.416 431.755 175.791L433.755 175.769ZM432.772 114.041C426.63 110.969 420.458 109.42 414.265 109.42V111.42C420.112 111.42 425.98 112.881 431.878 115.829L432.772 114.041ZM414.265 109.42C405.794 109.42 398.977 112.71 393.909 119.269L395.491 120.491C400.17 114.437 406.396 111.42 414.265 111.42V109.42ZM393.9 119.28C389.007 125.804 386.605 134.275 386.605 144.605H388.605C388.605 134.581 390.933 126.569 395.5 120.48L393.9 119.28ZM386.605 144.605C386.605 156.774 389.067 166.797 394.073 174.6L395.757 173.52C391.016 166.13 388.605 156.516 388.605 144.605H386.605ZM394.085 174.618C399.235 182.269 405.605 186.24 413.19 186.24V184.24C406.441 184.24 400.629 180.758 395.745 173.502L394.085 174.618ZM365.17 147.83C365.17 132.111 369.484 119.538 378.029 110.013L376.541 108.677C367.599 118.645 363.17 131.729 363.17 147.83H365.17ZM378.024 110.019C386.731 100.469 397.217 95.725 409.535 95.725V93.725C396.626 93.725 385.612 98.7275 376.546 108.671L378.024 110.019ZM409.535 95.725C417.679 95.725 425.251 97.6888 432.266 101.617L433.244 99.8725C425.926 95.7745 418.017 93.725 409.535 93.725V95.725ZM433.755 100.745C433.755 75.0731 432.895 54.8188 431.168 39.9993L429.182 40.2307C430.895 54.9379 431.755 75.1036 431.755 100.745H433.755ZM430.316 41.1049C434.287 40.5377 438.11 40.255 441.785 40.255V38.255C438.007 38.255 434.09 38.5456 430.034 39.125L430.316 41.1049ZM441.785 40.255C446.389 40.255 449.795 41.2334 452.136 43.0543L453.364 41.4756C450.545 39.2832 446.641 38.255 441.785 38.255V40.255ZM452.136 43.0543C454.436 44.8433 455.62 47.3978 455.62 50.865H457.62C457.62 46.8788 456.224 43.7 453.364 41.4756L452.136 43.0543ZM455.62 50.865C455.62 54.428 455.262 67.5213 454.546 90.1784L456.544 90.2416C457.261 67.6053 457.62 54.4686 457.62 50.865H455.62ZM454.545 90.1845C453.972 112.694 453.685 132.913 453.685 150.84H455.685C455.685 132.934 455.972 112.732 456.545 90.2355L454.545 90.1845ZM453.685 150.84C453.685 162.752 454.026 172.62 454.71 180.436C455.393 188.231 456.422 194.057 457.833 197.844L459.707 197.146C458.394 193.623 457.382 188.018 456.702 180.262C456.025 172.526 455.685 162.721 455.685 150.84H453.685ZM458.399 196.567C454.946 197.947 451.132 198.645 446.945 198.645V200.645C451.358 200.645 455.427 199.909 459.141 198.423L458.399 196.567ZM446.945 198.645C443.038 198.645 440.146 197.91 438.153 196.56C436.197 195.235 435.001 193.246 434.605 190.474L432.625 190.756C433.089 194.004 434.544 196.53 437.032 198.215C439.482 199.875 442.825 200.645 446.945 200.645V198.645ZM432.97 189.851C424.805 196.749 416.212 200.15 407.17 200.15V202.15C416.762 202.15 425.798 198.528 434.26 191.379L432.97 189.851ZM407.17 200.15C395.894 200.15 386.054 195.295 377.614 185.449L376.096 186.751C384.856 196.972 395.226 202.15 407.17 202.15V200.15ZM377.62 185.456C369.341 175.634 365.17 163.119 365.17 147.83H363.17C363.17 163.501 367.455 176.499 376.09 186.744L377.62 185.456ZM509.574 116.44L510.57 116.528L510.57 116.525L509.574 116.44ZM508.284 134.715L507.286 134.656L507.285 134.666L507.285 134.676L508.284 134.715ZM513.444 197.495L513.847 198.41L514.751 198.012L514.364 197.103L513.444 197.495ZM488.289 195.99L487.521 196.63L487.531 196.642L487.541 196.654L488.289 195.99ZM485.279 166.32L486.279 166.336L486.279 166.336L485.279 166.32ZM483.559 97.09L483.394 96.1036L482.462 96.2591L482.565 97.1991L483.559 97.09ZM484.849 82.9L484.159 83.6241L484.159 83.6241L484.849 82.9ZM485.064 61.185L485.736 61.9249L485.745 61.9167L485.754 61.9083L485.064 61.185ZM506.994 61.185L506.287 61.8921L506.295 61.9007L506.304 61.9091L506.994 61.185ZM506.779 82.9L507.451 83.6399L507.46 83.6317L507.469 83.6233L506.779 82.9ZM494.739 97.23C499.806 97.23 503.424 98.1676 505.756 99.8841C508.031 101.558 509.219 104.078 509.219 107.625H511.219C511.219 103.576 509.827 100.397 506.942 98.2734C504.113 96.1915 499.992 95.23 494.739 95.23V97.23ZM509.219 107.625C509.219 108.43 509.01 111.312 508.577 116.355L510.57 116.525C510.998 111.535 511.219 108.54 511.219 107.625H509.219ZM508.578 116.352C508.147 121.239 507.716 127.341 507.286 134.656L509.282 134.774C509.712 127.469 510.141 121.388 510.57 116.528L508.578 116.352ZM507.285 134.676C506.997 141.997 506.854 148.962 506.854 155.57H508.854C508.854 148.991 508.997 142.053 509.283 134.754L507.285 134.676ZM506.854 155.57C506.854 174.802 508.714 188.948 512.524 197.887L514.364 197.103C510.72 188.555 508.854 174.751 508.854 155.57H506.854ZM513.041 196.58C509.605 198.092 505.66 198.86 501.189 198.86V200.86C505.891 200.86 510.116 200.052 513.847 198.41L513.041 196.58ZM501.189 198.86C494.95 198.86 491.032 197.571 489.036 195.326L487.541 196.654C490.133 199.569 494.815 200.86 501.189 200.86V198.86ZM489.057 195.35C487.139 193.048 486.064 188.977 486.064 182.875H484.064C484.064 189.1 485.139 193.772 487.521 196.63L489.057 195.35ZM486.064 182.875C486.064 180.592 486.135 175.083 486.279 166.336L484.279 166.304C484.136 175.044 484.064 180.572 484.064 182.875H486.064ZM486.279 166.336C486.422 157.448 486.494 150.633 486.494 145.895H484.494C484.494 150.617 484.422 157.419 484.279 166.304L486.279 166.336ZM486.494 145.895C486.494 125.098 485.849 108.788 484.553 96.9809L482.565 97.1991C483.849 108.899 484.494 125.125 484.494 145.895H486.494ZM483.723 98.0764C487.101 97.5133 490.773 97.23 494.739 97.23V95.23C490.678 95.23 486.896 95.52 483.394 96.1036L483.723 98.0764ZM495.814 86.2C491.761 86.2 488.356 84.8588 485.538 82.1759L484.159 83.6241C487.362 86.6745 491.267 88.2 495.814 88.2V86.2ZM485.538 82.1759C482.741 79.512 481.334 76.1257 481.334 71.935H479.334C479.334 76.6309 480.936 80.5547 484.159 83.6241L485.538 82.1759ZM481.334 71.935C481.334 67.9138 482.794 64.6001 485.736 61.9249L484.391 60.4451C481.027 63.5032 479.334 67.3561 479.334 71.935H481.334ZM485.754 61.9083C488.724 59.0732 492.205 57.67 496.244 57.67V55.67C491.683 55.67 487.71 57.2768 484.373 60.4616L485.754 61.9083ZM496.244 57.67C500.128 57.67 503.459 59.0646 506.287 61.8921L507.701 60.4779C504.508 57.2854 500.673 55.67 496.244 55.67V57.67ZM506.304 61.9091C509.108 64.5798 510.509 67.898 510.509 71.935H512.509C512.509 67.3719 510.899 63.5235 507.683 60.4609L506.304 61.9091ZM510.509 71.935C510.509 75.9575 509.047 79.3524 506.088 82.1766L507.469 83.6233C510.817 80.4276 512.509 76.5125 512.509 71.935H510.509ZM506.106 82.1601C503.132 84.864 499.715 86.2 495.814 86.2V88.2C500.226 88.2 504.119 86.6693 507.451 83.6399L506.106 82.1601ZM591.924 125.685L590.968 125.979L591.243 126.873L592.153 126.658L591.924 125.685ZM558.384 114.935L558.977 115.74L558.99 115.73L559.003 115.72L558.384 114.935ZM559.889 133.425L559.342 134.262L559.349 134.267L559.356 134.271L559.889 133.425ZM573.864 138.8L573.658 139.779L573.658 139.779L573.864 138.8ZM590.204 142.885L590.482 141.924L590.482 141.924L590.204 142.885ZM603.964 151.7L603.208 152.355L603.214 152.362L603.221 152.369L603.964 151.7ZM597.299 192.98L597.854 193.812L597.857 193.81L597.299 192.98ZM542.044 196.205L542.442 195.288L542.442 195.288L542.044 196.205ZM543.979 169.115L544.898 168.721L544.507 167.809L543.592 168.193L543.979 169.115ZM582.464 163.525L581.94 164.377L581.959 164.388L581.978 164.399L582.464 163.525ZM568.704 158.58L568.498 159.559L568.51 159.561L568.523 159.563L568.704 158.58ZM552.364 154.28L552.063 155.234L552.063 155.234L552.364 154.28ZM538.389 144.82L537.613 145.451L537.619 145.458L537.625 145.465L538.389 144.82ZM545.054 102.895L545.598 103.734L545.602 103.731L545.054 102.895ZM587.624 96.23L587.41 97.2069L587.428 97.2107L587.445 97.2139L587.624 96.23ZM601.169 102.035L600.595 102.854L600.611 102.865L600.627 102.875L601.169 102.035ZM603.534 120.74L604.134 121.54L604.146 121.531L604.159 121.521L603.534 120.74ZM592.88 125.391C591.377 120.508 588.52 116.804 584.313 114.341C580.131 111.892 574.688 110.71 568.059 110.71V112.71C574.473 112.71 579.529 113.857 583.302 116.067C587.05 118.262 589.604 121.545 590.968 125.979L592.88 125.391ZM568.059 110.71C564.125 110.71 560.678 111.85 557.764 114.15L559.003 115.72C561.537 113.72 564.539 112.71 568.059 112.71V110.71ZM557.791 114.13C554.794 116.338 553.299 119.441 553.299 123.32H555.299C555.299 120.032 556.527 117.546 558.977 115.74L557.791 114.13ZM553.299 123.32C553.299 127.972 555.345 131.648 559.342 134.262L560.436 132.588C556.98 130.328 555.299 127.268 555.299 123.32H553.299ZM559.356 134.271C563.345 136.783 568.12 138.613 573.658 139.779L574.07 137.821C568.715 136.694 564.172 134.94 560.422 132.579L559.356 134.271ZM573.658 139.779C579.08 140.92 584.502 142.276 589.926 143.846L590.482 141.924C585.012 140.341 579.541 138.973 574.07 137.821L573.658 139.779ZM589.926 143.846C595.186 145.368 599.607 148.2 603.208 152.355L604.72 151.045C600.867 146.6 596.115 143.555 590.482 141.924L589.926 143.846ZM603.221 152.369C606.888 156.444 608.769 161.919 608.769 168.9H610.769C610.769 161.548 608.779 155.556 604.707 151.031L603.221 152.369ZM608.769 168.9C608.769 179.048 604.764 186.756 596.741 192.15L597.857 193.81C606.461 188.024 610.769 179.679 610.769 168.9H608.769ZM596.744 192.148C588.76 197.47 579.285 200.15 568.274 200.15V202.15C579.623 202.15 589.497 199.383 597.854 193.812L596.744 192.148ZM568.274 200.15C558.495 200.15 549.891 198.52 542.442 195.288L541.646 197.122C549.39 200.483 558.273 202.15 568.274 202.15V200.15ZM542.442 195.288C534.934 192.03 531.649 188.192 531.649 183.95H529.649C529.649 189.455 533.96 193.787 541.646 197.122L542.442 195.288ZM531.649 183.95C531.649 178.396 535.613 173.707 544.366 170.037L543.592 168.193C534.571 171.976 529.649 177.177 529.649 183.95H531.649ZM543.06 169.509C545.296 174.726 548.853 178.664 553.717 181.283C558.564 183.893 564.653 185.165 571.929 185.165V183.165C564.872 183.165 559.136 181.929 554.665 179.522C550.213 177.124 546.962 173.537 544.898 168.721L543.06 169.509ZM571.929 185.165C577.456 185.165 581.777 184.243 584.741 182.254C587.776 180.217 589.269 177.144 589.269 173.2H587.269C587.269 176.566 586.038 178.975 583.627 180.593C581.145 182.259 577.295 183.165 571.929 183.165V185.165ZM589.269 173.2C589.269 170.895 588.749 168.831 587.675 167.042C586.603 165.254 585.011 163.796 582.949 162.651L581.978 164.399C583.787 165.404 585.098 166.633 585.96 168.071C586.822 169.507 587.269 171.205 587.269 173.2H589.269ZM582.988 162.673C579.132 160.301 574.422 158.617 568.885 157.597L568.523 159.563C573.879 160.55 578.342 162.163 581.94 164.377L582.988 162.673ZM568.91 157.601C563.496 156.462 558.081 155.037 552.665 153.326L552.063 155.234C557.54 156.963 563.018 158.405 568.498 159.559L568.91 157.601ZM552.665 153.326C547.408 151.666 542.908 148.625 539.153 144.175L537.625 145.465C541.61 150.189 546.426 153.454 552.063 155.234L552.665 153.326ZM539.165 144.189C535.623 139.83 533.799 133.912 533.799 126.33H531.799C531.799 134.228 533.702 140.637 537.613 145.451L539.165 144.189ZM533.799 126.33C533.799 116.325 537.732 108.84 545.598 103.734L544.509 102.056C536.036 107.557 531.799 115.695 531.799 126.33H533.799ZM545.602 103.731C553.733 98.4045 563.283 95.725 574.294 95.725V93.725C562.944 93.725 553.002 96.4922 544.506 102.059L545.602 103.731ZM574.294 95.725C578.516 95.725 582.887 96.2175 587.41 97.2069L587.838 95.2531C583.187 94.2358 578.672 93.725 574.294 93.725V95.725ZM587.445 97.2139C592.021 98.0458 596.403 99.9192 600.595 102.854L601.742 101.216C597.335 98.1308 592.687 96.1342 587.803 95.2461L587.445 97.2139ZM600.627 102.875C604.848 105.598 606.834 108.965 606.834 113H608.834C608.834 108.148 606.377 104.205 601.711 101.195L600.627 102.875ZM606.834 113C606.834 115.481 605.611 117.798 602.909 119.959L604.159 121.521C607.19 119.096 608.834 116.252 608.834 113H606.834ZM602.934 119.94C600.212 121.981 596.484 123.585 591.695 124.712L592.153 126.658C597.111 125.492 601.122 123.799 604.134 121.54L602.934 119.94ZM653.311 106.765L652.32 106.893L652.545 108.643L653.931 107.55L653.311 106.765ZM708.996 102.465L709.684 101.739L709.684 101.739L708.996 102.465ZM716.736 144.175L715.737 144.145L715.737 144.153L715.737 144.16L716.736 144.175ZM722.111 197.065L722.498 197.987L723.4 197.609L723.042 196.698L722.111 197.065ZM697.601 196.205L696.894 196.912L696.894 196.912L697.601 196.205ZM694.376 155.57L695.376 155.597L695.376 155.597L694.376 155.57ZM690.076 116.01L689.301 116.642L689.301 116.642L690.076 116.01ZM654.171 121.385L653.497 120.646L653.165 120.95L653.172 121.4L654.171 121.385ZM655.891 198.57L656.038 199.559L656.97 199.421L656.888 198.482L655.891 198.57ZM631.596 170.62L630.597 170.574L630.597 170.582L630.597 170.589L631.596 170.62ZM628.156 98.595L627.74 97.6859L626.9 98.0707L627.217 98.9382L628.156 98.595ZM653.931 107.55C663.934 99.6602 675.183 95.725 687.711 95.725V93.725C674.726 93.725 663.042 97.8164 652.692 105.98L653.931 107.55ZM687.711 95.725C696.244 95.725 703.078 98.2358 708.309 103.191L709.684 101.739C704.021 96.3742 696.665 93.725 687.711 93.725V95.725ZM708.309 103.191C713.471 108.082 716.166 116.069 716.166 127.405H718.166C718.166 115.807 715.415 107.168 709.684 101.739L708.309 103.191ZM716.166 127.405C716.166 128.963 716.024 134.532 715.737 144.145L717.736 144.205C718.022 134.611 718.166 129.001 718.166 127.405H716.166ZM715.737 144.16C715.593 153.764 715.521 160.794 715.521 165.245H717.521C717.521 160.81 717.593 153.793 717.736 144.19L715.737 144.16ZM715.521 165.245C715.521 177.104 717.402 187.838 721.181 197.432L723.042 196.698C719.368 187.372 717.521 176.892 717.521 165.245H715.521ZM721.725 196.143C717.364 197.971 713.485 198.86 710.071 198.86V200.86C713.825 200.86 717.972 199.885 722.498 197.987L721.725 196.143ZM710.071 198.86C704.285 198.86 700.462 197.652 698.308 195.498L696.894 196.912C699.614 199.632 704.105 200.86 710.071 200.86V198.86ZM698.308 195.498C696.173 193.362 694.946 189.139 694.946 182.445H692.946C692.946 189.225 694.156 194.174 696.894 196.912L698.308 195.498ZM694.946 182.445C694.946 175.004 695.09 166.055 695.376 155.597L693.377 155.543C693.09 166.012 692.946 174.98 692.946 182.445H694.946ZM695.376 155.597C695.663 144.991 695.806 137.669 695.806 133.64H693.806C693.806 137.638 693.663 144.935 693.377 155.543L695.376 155.597ZM695.806 133.64C695.806 125.652 694.214 119.504 690.852 115.378L689.301 116.642C692.246 120.256 693.806 125.861 693.806 133.64H695.806ZM690.852 115.378C687.507 111.274 683.137 109.205 677.821 109.205V111.205C682.539 111.205 686.339 113.006 689.301 116.642L690.852 115.378ZM677.821 109.205C669.882 109.205 661.769 113.1 653.497 120.646L654.845 122.124C662.914 114.763 670.567 111.205 677.821 111.205V109.205ZM653.172 121.4C653.458 140.606 653.601 154.575 653.601 163.31H655.601C655.601 154.559 655.458 140.577 655.171 121.37L653.172 121.4ZM653.601 163.31C653.601 177.089 654.032 188.873 654.895 198.658L656.888 198.482C656.031 188.774 655.601 177.051 655.601 163.31H653.601ZM655.745 197.581C651.915 198.148 648.381 198.43 645.141 198.43V200.43C648.495 200.43 652.128 200.138 656.038 199.559L655.745 197.581ZM645.141 198.43C640.553 198.43 637.28 197.718 635.184 196.428C633.168 195.187 632.166 193.37 632.166 190.83H630.166C630.166 194.024 631.494 196.506 634.136 198.132C636.698 199.708 640.413 200.43 645.141 200.43V198.43ZM632.166 190.83C632.166 186.69 632.309 179.967 632.596 170.651L630.597 170.589C630.31 179.907 630.166 186.657 630.166 190.83H632.166ZM632.595 170.666C633.026 161.338 633.241 152.937 633.241 145.465H631.241C631.241 152.9 631.027 161.269 630.597 170.574L632.595 170.666ZM633.241 145.465C633.241 133.552 632.901 123.667 632.216 115.816C631.534 107.984 630.504 102.107 629.096 98.2518L627.217 98.9382C628.532 102.536 629.545 108.198 630.224 115.989C630.901 123.761 631.241 133.584 631.241 145.465H633.241ZM628.573 99.5041C631.874 97.9909 635.458 97.23 639.336 97.23V95.23C635.188 95.23 631.318 96.0458 627.74 97.6859L628.573 99.5041ZM639.336 97.23C643.411 97.23 646.44 97.866 648.521 99.0366L649.502 97.2934C646.996 95.884 643.575 95.23 639.336 95.23V97.23ZM648.521 99.0366C650.393 100.089 651.759 102.547 652.32 106.893L654.303 106.637C653.717 102.097 652.217 98.8206 649.502 97.2934L648.521 99.0366ZM763.87 156.215L763.914 155.216L762.712 155.164L762.88 156.354L763.87 156.215ZM773.545 178.575L772.859 179.303L772.869 179.312L773.545 178.575ZM804.505 182.66L804.07 181.759L804.07 181.759L804.505 182.66ZM813.75 174.06L814.219 173.177L813.341 172.711L812.87 173.586L813.75 174.06ZM814.18 197.28L813.822 196.346L813.822 196.346L814.18 197.28ZM755.485 187.82L754.838 188.582L754.843 188.587L755.485 187.82ZM754.84 108.915L755.521 109.648L755.521 109.647L754.84 108.915ZM817.405 103.755L816.739 104.501L816.747 104.508L817.405 103.755ZM823.855 142.025L822.99 141.523L822.985 141.532L823.855 142.025ZM798.055 155.57L798.197 156.56L798.197 156.56L798.055 155.57ZM771.61 118.16L770.873 117.484L770.873 117.484L771.61 118.16ZM763.225 142.67L762.228 142.593L762.145 143.67H763.225V142.67ZM783.435 142.025L783.535 143.02L783.546 143.019L783.558 143.017L783.435 142.025ZM799.775 114.935L799.051 115.625L799.059 115.633L799.068 115.642L799.775 114.935ZM779.565 155.645C775.716 155.645 770.501 155.502 763.914 155.216L763.827 157.214C770.426 157.501 775.674 157.645 779.565 157.645V155.645ZM762.88 156.354C764.33 166.65 767.613 174.357 772.859 179.303L774.231 177.847C769.444 173.333 766.277 166.133 764.86 156.076L762.88 156.354ZM772.869 179.312C778.226 184.223 784.779 186.67 792.465 186.67V184.67C785.244 184.67 779.184 182.387 774.221 177.838L772.869 179.312ZM792.465 186.67C796.512 186.67 800.673 185.62 804.94 183.561L804.07 181.759C800.023 183.713 796.158 184.67 792.465 184.67V186.67ZM804.94 183.561C809.268 181.471 812.515 178.463 814.631 174.534L812.87 173.586C810.972 177.11 808.055 179.836 804.07 181.759L804.94 183.561ZM813.281 174.943C820.256 178.644 823.285 182.404 823.285 186.1H825.285C825.285 181.196 821.291 176.929 814.219 173.177L813.281 174.943ZM823.285 186.1C823.285 190.366 820.391 193.831 813.822 196.346L814.538 198.214C821.443 195.569 825.285 191.581 825.285 186.1H823.285ZM813.822 196.346C807.216 198.876 799.815 200.15 791.605 200.15V202.15C800.022 202.15 807.671 200.844 814.538 198.214L813.822 196.346ZM791.605 200.15C778.373 200.15 766.559 195.794 756.127 187.053L754.843 188.587C765.624 197.62 777.89 202.15 791.605 202.15V200.15ZM756.132 187.058C745.942 178.403 740.79 165.883 740.79 149.335H738.79C738.79 166.327 744.102 179.464 754.838 188.582L756.132 187.058ZM740.79 149.335C740.79 131.898 745.746 118.724 755.521 109.648L754.16 108.182C743.868 117.739 738.79 131.512 738.79 149.335H740.79ZM755.521 109.647C765.515 100.358 777.24 95.725 790.745 95.725V93.725C776.73 93.725 764.519 98.5525 754.159 108.183L755.521 109.647ZM790.745 95.725C801.593 95.725 810.224 98.6788 816.739 104.501L818.071 103.009C811.113 96.7912 801.971 93.725 790.745 93.725V95.725ZM816.747 104.508C823.434 110.359 826.725 117.261 826.725 125.255H828.725C828.725 116.623 825.136 109.191 818.064 103.002L816.747 104.508ZM826.725 125.255C826.725 131.869 825.458 137.272 822.99 141.523L824.72 142.527C827.412 137.891 828.725 132.115 828.725 125.255H826.725ZM822.985 141.532C820.666 145.624 817.191 148.633 812.509 150.56L813.271 152.41C818.336 150.324 822.171 147.026 824.725 142.518L822.985 141.532ZM812.509 150.56C807.71 152.537 802.845 153.876 797.914 154.58L798.197 156.56C803.299 155.831 808.324 154.447 813.271 152.41L812.509 150.56ZM797.914 154.58C792.959 155.288 786.847 155.645 779.565 155.645V157.645C786.904 157.645 793.118 157.286 798.197 156.56L797.914 154.58ZM788.81 109.42C781.781 109.42 775.784 112.127 770.873 117.484L772.347 118.836C776.896 113.873 782.366 111.42 788.81 111.42V109.42ZM770.873 117.484C765.925 122.882 763.096 131.315 762.228 142.593L764.222 142.747C765.075 131.665 767.836 123.757 772.347 118.836L770.873 117.484ZM763.225 143.67C772.403 143.67 779.182 143.455 783.535 143.02L783.336 141.03C779.088 141.455 772.393 141.67 763.225 141.67V143.67ZM783.558 143.017C790.594 142.147 796.014 140.32 799.693 137.437C803.422 134.516 805.29 130.565 805.29 125.685H803.29C803.29 129.978 801.683 133.337 798.46 135.863C795.187 138.427 790.18 140.183 783.312 141.033L783.558 143.017ZM805.29 125.685C805.29 121.256 803.675 117.42 800.482 114.228L799.068 115.642C801.896 118.47 803.29 121.801 803.29 125.685H805.29ZM800.499 114.245C797.43 111.022 793.506 109.42 788.81 109.42V111.42C793.001 111.42 796.387 112.828 799.051 115.625L800.499 114.245ZM849.731 249.525L849.09 250.293L849.101 250.302L849.111 250.31L849.731 249.525ZM843.281 241.355L842.719 240.528L841.982 241.028L842.394 241.818L843.281 241.355ZM858.976 226.09L859.732 226.744L859.732 226.744L858.976 226.09ZM877.466 200.29L878.322 200.806L878.551 200.427L878.423 200.002L877.466 200.29ZM856.826 142.67L855.897 143.041L855.899 143.047L856.826 142.67ZM835.971 103.11L835.401 102.288L834.417 102.971L835.264 103.817L835.971 103.11ZM864.566 103.11L863.661 103.536L863.664 103.541L864.566 103.11ZM877.681 133.855L876.753 134.228L876.754 134.231L877.681 133.855ZM891.656 172.77L890.699 173.062L891.524 175.76L892.583 173.145L891.656 172.77ZM903.696 134.715L904.669 134.945L904.669 134.945L903.696 134.715ZM907.996 96.015L907.743 95.0474L906.859 95.278L907.009 96.1794L907.996 96.015ZM922.831 137.94L921.878 137.636L921.878 137.636L922.831 137.94ZM904.556 185.025L903.648 184.605L903.648 184.606L904.556 185.025ZM869.081 246.945L869.856 247.577L869.859 247.573L869.081 246.945ZM858.116 251.75C855.518 251.75 852.935 250.781 850.35 248.74L849.111 250.31C851.973 252.569 854.98 253.75 858.116 253.75V251.75ZM850.371 248.757C847.903 246.7 845.833 244.085 844.167 240.892L842.394 241.818C844.169 245.219 846.399 248.05 849.09 250.293L850.371 248.757ZM843.842 242.182C847.969 239.382 853.271 234.21 859.732 226.744L858.22 225.436C851.781 232.876 846.619 237.881 842.719 240.528L843.842 242.182ZM859.732 226.744C866.224 219.242 872.42 210.594 878.322 200.806L876.609 199.774C870.758 209.479 864.627 218.031 858.22 225.436L859.732 226.744ZM878.423 200.002C873.109 182.336 866.218 163.1 857.752 142.293L855.899 143.047C864.347 163.807 871.215 182.984 876.508 200.578L878.423 200.002ZM857.754 142.299C853.59 131.889 849.76 123.362 846.262 116.726C842.773 110.108 839.581 105.306 836.678 102.403L835.264 103.817C837.95 106.504 841.03 111.09 844.492 117.659C847.946 124.21 851.748 132.668 855.897 143.041L857.754 142.299ZM836.541 103.932C843.534 99.0789 848.98 96.8 852.956 96.8V94.8C848.332 94.8 842.454 97.3944 835.401 102.288L836.541 103.932ZM852.956 96.8C855.527 96.8 857.663 97.3736 859.41 98.4737C861.157 99.5734 862.581 101.241 863.661 103.536L865.47 102.684C864.257 100.106 862.599 98.1183 860.476 96.7813C858.353 95.4447 855.831 94.8 852.956 94.8V96.8ZM863.664 103.541C866.802 110.105 871.164 120.328 876.753 134.228L878.608 133.482C873.017 119.575 868.636 109.302 865.468 102.679L863.664 103.541ZM876.754 134.231C882.335 147.968 886.983 160.912 890.699 173.062L892.612 172.477C888.875 160.262 884.207 147.262 878.607 133.479L876.754 134.231ZM892.583 173.145C897.476 161.056 901.504 148.322 904.669 134.945L902.723 134.485C899.58 147.768 895.582 160.404 890.729 172.395L892.583 173.145ZM904.669 134.945C907.83 121.583 909.426 110.747 909.426 102.465H907.426C907.426 110.523 905.868 121.187 902.723 134.485L904.669 134.945ZM909.426 102.465C909.426 99.8534 909.281 97.644 908.982 95.8506L907.009 96.1794C907.284 97.826 907.426 99.9166 907.426 102.465H909.426ZM908.248 96.9826C911.449 96.1475 915.018 95.725 918.961 95.725V93.725C914.877 93.725 911.135 94.1625 907.743 95.0474L908.248 96.9826ZM918.961 95.725C922.729 95.725 925.371 96.4624 927.054 97.7718C928.69 99.0442 929.571 100.976 929.571 103.755H931.571C931.571 100.514 930.516 97.9308 928.282 96.1931C926.096 94.4926 922.933 93.725 918.961 93.725V95.725ZM929.571 103.755C929.571 110.173 927.041 121.431 921.878 137.636L923.783 138.244C928.941 122.056 931.571 110.523 931.571 103.755H929.571ZM921.878 137.636C916.73 153.794 910.654 169.45 903.648 184.605L905.463 185.445C912.504 170.213 918.611 154.479 923.783 138.244L921.878 137.636ZM903.648 184.606C890.759 212.53 878.975 233.083 868.302 246.317L869.859 247.573C880.686 234.147 892.552 213.42 905.464 185.444L903.648 184.606ZM868.305 246.313C865.3 250.002 861.911 251.75 858.116 251.75V253.75C862.634 253.75 866.555 251.628 869.856 247.577L868.305 246.313Z" fill="black"/>
</g>
<path d="M587.949 309.508V378.709C587.949 405.439 589.83 425.041 593.592 437.515C590.82 439.099 585.474 439.891 577.554 439.891C569.436 439.891 563.991 438.604 561.219 436.03C558.447 433.456 557.061 429.1 557.061 422.962V289.312C543.993 321.784 527.361 371.482 507.165 438.406C503.997 439.198 500.334 439.594 496.176 439.594C485.88 439.594 479.544 437.02 477.168 431.872C471.228 418.804 462.417 395.44 450.735 361.78C439.053 327.922 430.242 303.568 424.302 288.718V378.709C424.302 405.439 426.183 425.041 429.945 437.515C424.599 439.099 419.451 439.891 414.501 439.891C407.571 439.891 402.819 438.604 400.245 436.03C397.869 433.456 396.681 429.1 396.681 422.962C396.681 419.794 396.78 411.973 396.978 399.499C397.176 387.025 397.275 377.323 397.275 370.393V295.549C397.275 273.373 395.394 255.949 391.632 243.277C399.552 241.693 406.581 240.901 412.719 240.901C424.005 240.901 432.618 245.653 438.558 255.157C446.082 267.235 453.408 282.382 460.536 300.598C467.862 318.616 473.406 333.862 477.168 346.336C481.128 358.81 486.573 376.729 493.503 400.093C510.135 337.525 528.549 289.015 548.745 254.563C553.893 245.455 562.308 240.901 573.99 240.901C581.712 240.901 588.147 241.693 593.295 243.277C589.731 255.157 587.949 277.234 587.949 309.508ZM661.009 265.849C661.801 273.571 662.197 292.084 662.197 321.388H684.472C700.312 321.388 711.598 320.992 718.33 320.2C719.122 321.982 719.518 325.15 719.518 329.704C719.518 335.248 718.528 339.109 716.548 341.287C714.568 343.267 711.4 344.356 707.044 344.554C702.094 344.752 695.461 344.851 687.145 344.851H662.197C662.197 384.253 662.89 407.914 664.276 415.834C672.592 416.23 679.423 416.428 684.769 416.428C716.449 416.428 736.942 414.25 746.248 409.894C747.832 414.448 748.624 419.695 748.624 425.635C748.624 430.189 747.733 433.357 745.951 435.139C742.189 438.109 725.26 439.594 695.164 439.594C668.236 439.594 651.802 439.396 645.862 439C639.724 438.802 635.566 437.515 633.388 435.139C631.408 432.565 630.418 428.209 630.418 422.071C630.418 418.309 630.517 410.191 630.715 397.717C630.913 385.243 631.012 375.64 631.012 368.908V311.29C631.012 283.57 629.626 261.097 626.854 243.871C648.436 242.089 670.513 241.198 693.085 241.198C722.389 241.198 738.922 242.683 742.684 245.653C744.466 247.435 745.357 250.603 745.357 255.157C745.357 261.097 744.565 266.443 742.981 271.195C732.091 267.037 714.865 264.958 691.303 264.958C681.799 264.958 671.701 265.255 661.009 265.849ZM772.743 423.259C775.515 405.241 777.099 371.977 777.495 323.467C777.495 288.817 776.208 261.889 773.634 242.683C786.108 240.307 802.047 239.119 821.451 239.119C837.489 239.119 851.844 240.802 864.516 244.168C877.386 247.534 889.068 252.979 899.562 260.503C910.254 267.829 918.471 278.224 924.213 291.688C930.153 305.152 933.123 321.289 933.123 340.099C933.123 369.799 924.906 394.252 908.472 413.458C892.038 432.466 868.575 441.97 838.083 441.97C809.967 441.97 788.187 435.733 772.743 423.259ZM807.195 263.176C807.987 276.046 808.383 291.193 808.383 308.617C808.383 349.603 806.997 382.669 804.225 407.815C813.729 414.745 825.51 418.21 839.568 418.21C850.656 418.21 860.259 416.032 868.377 411.676C876.495 407.122 882.633 401.182 886.791 393.856C891.147 386.332 894.315 378.61 896.295 370.69C898.275 362.572 899.265 354.157 899.265 345.445C899.265 317.725 892.731 296.935 879.663 283.075C866.793 269.017 848.28 261.988 824.124 261.988C820.362 261.988 814.719 262.384 807.195 263.176Z" fill="#FF6666"/>
<defs>
<filter id="filter0_b" x="360.17" y="35.255" width="574.401" height="221.495" filterUnits="userSpaceOnUse" color-interpolation-filters="sRGB">
<feFlood flood-opacity="0" result="BackgroundImageFix"/>
<feGaussianBlur in="BackgroundImage" stdDeviation="2"/>
<feComposite in2="SourceAlpha" operator="in" result="effect1_backgroundBlur"/>
<feBlend mode="normal" in="SourceGraphic" in2="effect1_backgroundBlur" result="shape"/>
</filter>
</defs>
</svg>
